# 3ds Max Wavefront OBJ Exporter v0.97b - (c)2007 guruware
# File Created: 15.10.2017 16:18:02

mtllib tube.mtl

#
# object Tube
#

v  0.001671 -19.711605 -8.006801
v  0.001671 19.688396 -8.006801
v  1.667160 19.688396 -7.831751
v  1.667160 -19.711605 -7.831751
v  0.001671 19.688396 -7.796245
v  1.623383 19.688396 -7.625796
v  0.001671 -19.711605 -7.796245
v  1.623383 -19.711605 -7.625796
v  3.259858 19.688396 -7.314252
v  3.259858 -19.711605 -7.314252
v  3.174217 19.688396 -7.121900
v  3.174217 -19.711605 -7.121900
v  4.710158 19.688396 -6.476921
v  4.710158 -19.711605 -6.476921
v  4.586397 19.688396 -6.306577
v  4.586397 -19.711605 -6.306577
v  5.954675 19.688396 -5.356353
v  5.954675 -19.711605 -5.356353
v  5.798202 19.688396 -5.215464
v  5.798202 -19.711605 -5.215464
v  6.939017 19.688396 -4.001523
v  6.939017 -19.711605 -4.001523
v  6.756670 19.688396 -3.896244
v  6.756670 -19.711605 -3.896244
v  7.620163 19.688396 -2.471642
v  7.620163 -19.711605 -2.471642
v  7.419913 19.688396 -2.406577
v  7.419913 -19.711605 -2.406577
v  7.968346 19.688396 -0.833575
v  7.968346 -19.711605 -0.833575
v  7.758943 19.688396 -0.811566
v  7.758943 -19.711605 -0.811566
v  7.968346 19.688396 0.841087
v  7.968346 -19.711605 0.841087
v  7.758943 19.688396 0.819078
v  7.758943 -19.711605 0.819078
v  7.620163 19.688396 2.479154
v  7.620163 -19.711605 2.479154
v  7.419913 19.688396 2.414088
v  7.419913 -19.711605 2.414088
v  6.939017 19.688396 4.009034
v  6.939017 -19.711605 4.009034
v  6.756670 19.688396 3.903756
v  6.756670 -19.711605 3.903756
v  5.954675 19.688396 5.363864
v  5.954675 -19.711605 5.363864
v  5.798202 19.688396 5.222975
v  5.798202 -19.711605 5.222975
v  4.710158 19.688396 6.484432
v  4.710158 -19.711605 6.484432
v  4.586397 19.688396 6.314088
v  4.586397 -19.711605 6.314088
v  3.259858 19.688396 7.321763
v  3.259858 -19.711605 7.321763
v  3.174217 19.688396 7.129411
v  3.174217 -19.711605 7.129411
v  1.667160 19.688396 7.839262
v  1.667160 -19.711605 7.839262
v  1.623383 19.688396 7.633307
v  1.623383 -19.711605 7.633307
v  0.001671 19.688396 8.014312
v  0.001671 -19.711605 8.014312
v  0.001671 19.688396 7.803756
v  0.001671 -19.711605 7.803756
v  -1.663817 19.688396 7.839262
v  -1.663817 -19.711605 7.839262
v  -1.620040 19.688396 7.633307
v  -1.620040 -19.711605 7.633307
v  -3.256516 19.688396 7.321763
v  -3.256516 -19.711605 7.321763
v  -3.170875 19.688396 7.129410
v  -3.170875 -19.711605 7.129410
v  -4.706814 19.688396 6.484432
v  -4.706814 -19.711605 6.484432
v  -4.583053 19.688396 6.314088
v  -4.583053 -19.711605 6.314088
v  -5.951332 19.688396 5.363864
v  -5.951332 -19.711605 5.363864
v  -5.794858 19.688396 5.222975
v  -5.794858 -19.711605 5.222975
v  -6.935673 19.688396 4.009034
v  -6.935673 -19.711605 4.009034
v  -6.753326 19.688396 3.903756
v  -6.753326 -19.711605 3.903756
v  -7.616819 19.688396 2.479154
v  -7.616819 -19.711605 2.479154
v  -7.416569 19.688396 2.414089
v  -7.416569 -19.711605 2.414089
v  -7.965002 19.688396 0.841087
v  -7.965002 -19.711605 0.841087
v  -7.755599 19.688396 0.819078
v  -7.755599 -19.711605 0.819078
v  -7.965002 19.688396 -0.833575
v  -7.965002 -19.711605 -0.833575
v  -7.755599 19.688396 -0.811566
v  -7.755599 -19.711605 -0.811566
v  -7.616820 19.688396 -2.471642
v  -7.616820 -19.711605 -2.471642
v  -7.416569 19.688396 -2.406577
v  -7.416569 -19.711605 -2.406577
v  -6.935673 19.688396 -4.001523
v  -6.935673 -19.711605 -4.001523
v  -6.753326 19.688396 -3.896244
v  -6.753326 -19.711605 -3.896244
v  -5.951332 19.688396 -5.356353
v  -5.951332 -19.711605 -5.356353
v  -5.794858 19.688396 -5.215464
v  -5.794858 -19.711605 -5.215464
v  -4.706816 19.688396 -6.476919
v  -4.706816 -19.711605 -6.476919
v  -4.583055 19.688396 -6.306576
v  -4.583055 -19.711605 -6.306576
v  -3.256519 19.688396 -7.314250
v  -3.256519 -19.711605 -7.314250
v  -3.170878 19.688396 -7.121898
v  -3.170878 -19.711605 -7.121898
v  -1.663822 19.688396 -7.831749
v  -1.663822 -19.711605 -7.831749
v  -1.620045 19.688396 -7.625795
v  -1.620045 -19.711605 -7.625795
# 120 vertices

vn -0.000000 0.000000 -1.000000
vn 0.207912 0.000000 -0.978148
vn 0.000000 1.000000 -0.000000
vn 0.000000 0.000000 1.000000
vn -0.207912 0.000000 0.978148
vn 0.000000 -1.000000 -0.000000
vn 0.406737 0.000000 -0.913545
vn -0.406737 0.000000 0.913545
vn 0.587785 0.000000 -0.809017
vn -0.587785 0.000000 0.809017
vn 0.743145 0.000000 -0.669131
vn -0.743145 0.000000 0.669131
vn 0.866025 0.000000 -0.500000
vn -0.866025 0.000000 0.500000
vn 0.951056 0.000000 -0.309017
vn -0.951056 0.000000 0.309017
vn 0.994522 0.000000 -0.104529
vn -0.994522 0.000000 0.104529
vn 0.994522 0.000000 0.104529
vn -0.994522 0.000000 -0.104529
vn 0.951056 0.000000 0.309017
vn -0.951056 0.000000 -0.309017
vn 0.866025 0.000000 0.500000
vn -0.866025 0.000000 -0.500000
vn 0.743145 0.000000 0.669131
vn -0.743145 0.000000 -0.669131
vn 0.587785 0.000000 0.809017
vn -0.587785 0.000000 -0.809017
vn 0.406737 0.000000 0.913545
vn -0.406737 0.000000 -0.913545
vn 0.207912 0.000000 0.978148
vn -0.207912 0.000000 -0.978148
vn -0.000000 0.000000 1.000000
vn 0.000000 0.000000 -1.000000
# 34 vertex normals

vt 1.000000 0.158433 0.320422
vt 1.000000 0.946432 0.320422
vt 0.966667 0.946432 0.320422
vt 0.966667 0.158433 0.320422
vt 1.000000 0.946432 0.312000
vt 0.966667 0.946432 0.312000
vt 1.000000 0.158433 0.312000
vt 0.966667 0.158433 0.312000
vt 0.933333 0.946432 0.320422
vt 0.933333 0.158433 0.320422
vt 0.933333 0.946432 0.312000
vt 0.933333 0.158433 0.312000
vt 0.900000 0.946432 0.320422
vt 0.900000 0.158433 0.320422
vt 0.900000 0.946432 0.312000
vt 0.900000 0.158433 0.312000
vt 0.866667 0.946432 0.320422
vt 0.866667 0.158433 0.320422
vt 0.866667 0.946432 0.312000
vt 0.866667 0.158433 0.312000
vt 0.833333 0.946432 0.320422
vt 0.833333 0.158433 0.320422
vt 0.833333 0.946432 0.312000
vt 0.833333 0.158433 0.312000
vt 0.800000 0.946432 0.320422
vt 0.800000 0.158433 0.320422
vt 0.800000 0.946432 0.312000
vt 0.800000 0.158433 0.312000
vt 0.766667 0.946432 0.320422
vt 0.766667 0.158433 0.320422
vt 0.766667 0.946432 0.312000
vt 0.766667 0.158433 0.312000
vt 0.733333 0.946432 0.320422
vt 0.733333 0.158433 0.320422
vt 0.733333 0.946432 0.312000
vt 0.733333 0.158433 0.312000
vt 0.700000 0.946432 0.320422
vt 0.700000 0.158433 0.320422
vt 0.700000 0.946432 0.312000
vt 0.700000 0.158433 0.312000
vt 0.666667 0.946432 0.320422
vt 0.666667 0.158433 0.320422
vt 0.666667 0.946432 0.312000
vt 0.666667 0.158433 0.312000
vt 0.633333 0.946432 0.320422
vt 0.633333 0.158433 0.320422
vt 0.633333 0.946432 0.312000
vt 0.633333 0.158433 0.312000
vt 0.600000 0.946432 0.320422
vt 0.600000 0.158433 0.320422
vt 0.600000 0.946432 0.312000
vt 0.600000 0.158433 0.312000
vt 0.566667 0.946432 0.320422
vt 0.566667 0.158433 0.320422
vt 0.566667 0.946432 0.312000
vt 0.566667 0.158433 0.312000
vt 0.533333 0.946432 0.320422
vt 0.533333 0.158433 0.320422
vt 0.533333 0.946432 0.312000
vt 0.533333 0.158433 0.312000
vt 0.500000 0.946432 0.320422
vt 0.500000 0.158433 0.320422
vt 0.500000 0.946432 0.312000
vt 0.500000 0.158433 0.312000
vt 0.466667 0.946432 0.320422
vt 0.466667 0.158433 0.320422
vt 0.466667 0.946432 0.312000
vt 0.466667 0.158433 0.312000
vt 0.433333 0.946432 0.320422
vt 0.433333 0.158433 0.320422
vt 0.433333 0.946432 0.312000
vt 0.433333 0.158433 0.312000
vt 0.400000 0.946432 0.320422
vt 0.400000 0.158433 0.320422
vt 0.400000 0.946432 0.312000
vt 0.400000 0.158433 0.312000
vt 0.366667 0.946432 0.320422
vt 0.366667 0.158433 0.320422
vt 0.366667 0.946432 0.312000
vt 0.366667 0.158433 0.312000
vt 0.333333 0.946432 0.320422
vt 0.333333 0.158433 0.320422
vt 0.333333 0.946432 0.312000
vt 0.333333 0.158433 0.312000
vt 0.300000 0.946432 0.320422
vt 0.300000 0.158433 0.320422
vt 0.300000 0.946432 0.312000
vt 0.300000 0.158433 0.312000
vt 0.266667 0.946432 0.320422
vt 0.266667 0.158433 0.320422
vt 0.266667 0.946432 0.312000
vt 0.266667 0.158433 0.312000
vt 0.233333 0.946432 0.320422
vt 0.233333 0.158433 0.320422
vt 0.233333 0.946432 0.312000
vt 0.233333 0.158433 0.312000
vt 0.200000 0.946432 0.320422
vt 0.200000 0.158433 0.320422
vt 0.200000 0.946432 0.312000
vt 0.200000 0.158433 0.312000
vt 0.166667 0.946432 0.320422
vt 0.166667 0.158433 0.320422
vt 0.166667 0.946432 0.312000
vt 0.166667 0.158433 0.312000
vt 0.133333 0.946432 0.320422
vt 0.133333 0.158433 0.320422
vt 0.133333 0.946432 0.312000
vt 0.133333 0.158433 0.312000
vt 0.100000 0.946432 0.320422
vt 0.100000 0.158433 0.320422
vt 0.100000 0.946432 0.312000
vt 0.100000 0.158433 0.312000
vt 0.066667 0.946432 0.320422
vt 0.066667 0.158433 0.320422
vt 0.066667 0.946432 0.312000
vt 0.066667 0.158433 0.312000
vt 0.033333 0.946432 0.320422
vt 0.033333 0.158433 0.320422
vt 0.033333 0.946432 0.312000
vt 0.033333 0.158433 0.312000
vt 0.000000 0.946432 0.320422
vt 0.000000 0.158433 0.320422
vt 0.000000 0.946432 0.312000
vt 0.000000 0.158433 0.312000
# 124 texture coords

g Tube
usemtl Material__27
s 2
f -120/-124/-34 -119/-123/-34 -118/-122/-33 -117/-121/-33 
s 4
f -119/-123/-32 -116/-120/-32 -115/-119/-32 -118/-122/-32 
s 2
f -116/-120/-31 -114/-118/-31 -113/-117/-30 -115/-119/-30 
s 4
f -114/-118/-29 -120/-124/-29 -117/-121/-29 -113/-117/-29 
s 2
f -117/-121/-33 -118/-122/-33 -112/-116/-28 -111/-115/-28 
s 4
f -118/-122/-32 -115/-119/-32 -110/-114/-32 -112/-116/-32 
s 2
f -115/-119/-30 -113/-117/-30 -109/-113/-27 -110/-114/-27 
s 4
f -113/-117/-29 -117/-121/-29 -111/-115/-29 -109/-113/-29 
s 2
f -111/-115/-28 -112/-116/-28 -108/-112/-26 -107/-111/-26 
s 4
f -112/-116/-32 -110/-114/-32 -106/-110/-32 -108/-112/-32 
s 2
f -110/-114/-27 -109/-113/-27 -105/-109/-25 -106/-110/-25 
s 4
f -109/-113/-29 -111/-115/-29 -107/-111/-29 -105/-109/-29 
s 2
f -107/-111/-26 -108/-112/-26 -104/-108/-24 -103/-107/-24 
s 4
f -108/-112/-32 -106/-110/-32 -102/-106/-32 -104/-108/-32 
s 2
f -106/-110/-25 -105/-109/-25 -101/-105/-23 -102/-106/-23 
s 4
f -105/-109/-29 -107/-111/-29 -103/-107/-29 -101/-105/-29 
s 2
f -103/-107/-24 -104/-108/-24 -100/-104/-22 -99/-103/-22 
s 4
f -104/-108/-32 -102/-106/-32 -98/-102/-32 -100/-104/-32 
s 2
f -102/-106/-23 -101/-105/-23 -97/-101/-21 -98/-102/-21 
s 4
f -101/-105/-29 -103/-107/-29 -99/-103/-29 -97/-101/-29 
s 2
f -99/-103/-22 -100/-104/-22 -96/-100/-20 -95/-99/-20 
s 4
f -100/-104/-32 -98/-102/-32 -94/-98/-32 -96/-100/-32 
s 2
f -98/-102/-21 -97/-101/-21 -93/-97/-19 -94/-98/-19 
s 4
f -97/-101/-29 -99/-103/-29 -95/-99/-29 -93/-97/-29 
s 2
f -95/-99/-20 -96/-100/-20 -92/-96/-18 -91/-95/-18 
s 4
f -96/-100/-32 -94/-98/-32 -90/-94/-32 -92/-96/-32 
s 2
f -94/-98/-19 -93/-97/-19 -89/-93/-17 -90/-94/-17 
s 4
f -93/-97/-29 -95/-99/-29 -91/-95/-29 -89/-93/-29 
s 2
f -91/-95/-18 -92/-96/-18 -88/-92/-16 -87/-91/-16 
s 4
f -92/-96/-32 -90/-94/-32 -86/-90/-32 -88/-92/-32 
s 2
f -90/-94/-17 -89/-93/-17 -85/-89/-15 -86/-90/-15 
s 4
f -89/-93/-29 -91/-95/-29 -87/-91/-29 -85/-89/-29 
s 2
f -87/-91/-16 -88/-92/-16 -84/-88/-14 -83/-87/-14 
s 4
f -88/-92/-32 -86/-90/-32 -82/-86/-32 -84/-88/-32 
s 2
f -86/-90/-15 -85/-89/-15 -81/-85/-13 -82/-86/-13 
s 4
f -85/-89/-29 -87/-91/-29 -83/-87/-29 -81/-85/-29 
s 2
f -83/-87/-14 -84/-88/-14 -80/-84/-12 -79/-83/-12 
s 4
f -84/-88/-32 -82/-86/-32 -78/-82/-32 -80/-84/-32 
s 2
f -82/-86/-13 -81/-85/-13 -77/-81/-11 -78/-82/-11 
s 4
f -81/-85/-29 -83/-87/-29 -79/-83/-29 -77/-81/-29 
s 2
f -79/-83/-12 -80/-84/-12 -76/-80/-10 -75/-79/-10 
s 4
f -80/-84/-32 -78/-82/-32 -74/-78/-32 -76/-80/-32 
s 2
f -78/-82/-11 -77/-81/-11 -73/-77/-9 -74/-78/-9 
s 4
f -77/-81/-29 -79/-83/-29 -75/-79/-29 -73/-77/-29 
s 2
f -75/-79/-10 -76/-80/-10 -72/-76/-8 -71/-75/-8 
s 4
f -76/-80/-32 -74/-78/-32 -70/-74/-32 -72/-76/-32 
s 2
f -74/-78/-9 -73/-77/-9 -69/-73/-7 -70/-74/-7 
s 4
f -73/-77/-29 -75/-79/-29 -71/-75/-29 -69/-73/-29 
s 2
f -71/-75/-8 -72/-76/-8 -68/-72/-6 -67/-71/-6 
s 4
f -72/-76/-32 -70/-74/-32 -66/-70/-32 -68/-72/-32 
s 2
f -70/-74/-7 -69/-73/-7 -65/-69/-5 -66/-70/-5 
s 4
f -69/-73/-29 -71/-75/-29 -67/-71/-29 -65/-69/-29 
s 2
f -67/-71/-6 -68/-72/-6 -64/-68/-4 -63/-67/-4 
s 4
f -68/-72/-32 -66/-70/-32 -62/-66/-32 -64/-68/-32 
s 2
f -66/-70/-5 -65/-69/-5 -61/-65/-3 -62/-66/-3 
s 4
f -65/-69/-29 -67/-71/-29 -63/-67/-29 -61/-65/-29 
s 2
f -63/-67/-4 -64/-68/-4 -60/-64/-2 -59/-63/-2 
s 4
f -64/-68/-32 -62/-66/-32 -58/-62/-32 -60/-64/-32 
s 2
f -62/-66/-3 -61/-65/-3 -57/-61/-1 -58/-62/-1 
s 4
f -61/-65/-29 -63/-67/-29 -59/-63/-29 -57/-61/-29 
s 2
f -59/-63/-2 -60/-64/-2 -56/-60/-30 -55/-59/-30 
s 4
f -60/-64/-32 -58/-62/-32 -54/-58/-32 -56/-60/-32 
s 2
f -58/-62/-1 -57/-61/-1 -53/-57/-33 -54/-58/-33 
s 4
f -57/-61/-29 -59/-63/-29 -55/-59/-29 -53/-57/-29 
s 2
f -55/-59/-30 -56/-60/-30 -52/-56/-27 -51/-55/-27 
s 4
f -56/-60/-32 -54/-58/-32 -50/-54/-32 -52/-56/-32 
s 2
f -54/-58/-33 -53/-57/-33 -49/-53/-28 -50/-54/-28 
s 4
f -53/-57/-29 -55/-59/-29 -51/-55/-29 -49/-53/-29 
s 2
f -51/-55/-27 -52/-56/-27 -48/-52/-25 -47/-51/-25 
s 4
f -52/-56/-32 -50/-54/-32 -46/-50/-32 -48/-52/-32 
s 2
f -50/-54/-28 -49/-53/-28 -45/-49/-26 -46/-50/-26 
s 4
f -49/-53/-29 -51/-55/-29 -47/-51/-29 -45/-49/-29 
s 2
f -47/-51/-25 -48/-52/-25 -44/-48/-23 -43/-47/-23 
s 4
f -48/-52/-32 -46/-50/-32 -42/-46/-32 -44/-48/-32 
s 2
f -46/-50/-26 -45/-49/-26 -41/-45/-24 -42/-46/-24 
s 4
f -45/-49/-29 -47/-51/-29 -43/-47/-29 -41/-45/-29 
s 2
f -43/-47/-23 -44/-48/-23 -40/-44/-21 -39/-43/-21 
s 4
f -44/-48/-32 -42/-46/-32 -38/-42/-32 -40/-44/-32 
s 2
f -42/-46/-24 -41/-45/-24 -37/-41/-22 -38/-42/-22 
s 4
f -41/-45/-29 -43/-47/-29 -39/-43/-29 -37/-41/-29 
s 2
f -39/-43/-21 -40/-44/-21 -36/-40/-19 -35/-39/-19 
s 4
f -40/-44/-32 -38/-42/-32 -34/-38/-32 -36/-40/-32 
s 2
f -38/-42/-22 -37/-41/-22 -33/-37/-20 -34/-38/-20 
s 4
f -37/-41/-29 -39/-43/-29 -35/-39/-29 -33/-37/-29 
s 2
f -35/-39/-19 -36/-40/-19 -32/-36/-17 -31/-35/-17 
s 4
f -36/-40/-32 -34/-38/-32 -30/-34/-32 -32/-36/-32 
s 2
f -34/-38/-20 -33/-37/-20 -29/-33/-18 -30/-34/-18 
s 4
f -33/-37/-29 -35/-39/-29 -31/-35/-29 -29/-33/-29 
s 2
f -31/-35/-17 -32/-36/-17 -28/-32/-15 -27/-31/-15 
s 4
f -32/-36/-32 -30/-34/-32 -26/-30/-32 -28/-32/-32 
s 2
f -30/-34/-18 -29/-33/-18 -25/-29/-16 -26/-30/-16 
s 4
f -29/-33/-29 -31/-35/-29 -27/-31/-29 -25/-29/-29 
s 2
f -27/-31/-15 -28/-32/-15 -24/-28/-13 -23/-27/-13 
s 4
f -28/-32/-32 -26/-30/-32 -22/-26/-32 -24/-28/-32 
s 2
f -26/-30/-16 -25/-29/-16 -21/-25/-14 -22/-26/-14 
s 4
f -25/-29/-29 -27/-31/-29 -23/-27/-29 -21/-25/-29 
s 2
f -23/-27/-13 -24/-28/-13 -20/-24/-11 -19/-23/-11 
s 4
f -24/-28/-32 -22/-26/-32 -18/-22/-32 -20/-24/-32 
s 2
f -22/-26/-14 -21/-25/-14 -17/-21/-12 -18/-22/-12 
s 4
f -21/-25/-29 -23/-27/-29 -19/-23/-29 -17/-21/-29 
s 2
f -19/-23/-11 -20/-24/-11 -16/-20/-9 -15/-19/-9 
s 4
f -20/-24/-32 -18/-22/-32 -14/-18/-32 -16/-20/-32 
s 2
f -18/-22/-12 -17/-21/-12 -13/-17/-10 -14/-18/-10 
s 4
f -17/-21/-29 -19/-23/-29 -15/-19/-29 -13/-17/-29 
s 2
f -15/-19/-9 -16/-20/-9 -12/-16/-7 -11/-15/-7 
s 4
f -16/-20/-32 -14/-18/-32 -10/-14/-32 -12/-16/-32 
s 2
f -14/-18/-10 -13/-17/-10 -9/-13/-8 -10/-14/-8 
s 4
f -13/-17/-29 -15/-19/-29 -11/-15/-29 -9/-13/-29 
s 2
f -11/-15/-7 -12/-16/-7 -8/-12/-5 -7/-11/-5 
s 4
f -12/-16/-32 -10/-14/-32 -6/-10/-32 -8/-12/-32 
s 2
f -10/-14/-8 -9/-13/-8 -5/-9/-6 -6/-10/-6 
s 4
f -9/-13/-29 -11/-15/-29 -7/-11/-29 -5/-9/-29 
s 2
f -7/-11/-5 -8/-12/-5 -4/-8/-3 -3/-7/-3 
s 4
f -8/-12/-32 -6/-10/-32 -2/-6/-32 -4/-8/-32 
s 2
f -6/-10/-6 -5/-9/-6 -1/-5/-4 -2/-6/-4 
s 4
f -5/-9/-29 -7/-11/-29 -3/-7/-29 -1/-5/-29 
s 2
f -3/-7/-3 -4/-8/-3 -119/-4/-34 -120/-3/-34 
s 4
f -4/-8/-32 -2/-6/-32 -116/-2/-32 -119/-4/-32 
s 2
f -2/-6/-4 -1/-5/-4 -114/-1/-31 -116/-2/-31 
s 4
f -1/-5/-29 -3/-7/-29 -120/-3/-29 -114/-1/-29 
# 120 polygons

